# xmcd
#
# Track frame offsets:
#	150
#	17843
#	33768
#	51025
#	64939
#	79399
#	94735
#	106930
#	121993
#	139150
#	155025
#	171008
#	188592
#	205672
#	216647
#	229819
#
# Disc length: 3309 seconds
#
# Revision: 0
# Processed by: cddbd v1.5.2PL0 Copyright (c) Steve Scherf et al.
# Submitted via: EasyCDDAExtractor 16.0.8.2
#
DISCID=dd0ceb10
DTITLE=Χριστοδουλόπουλος Μάκης - Πορτρέτο-Μ. Χριστοδουλόπουλος 2
DYEAR=2014
DGENRE=Ποικίλη
TTITLE0=Νά 'χαν οι καρδιές αμπάρες [Β. Σαλέας-Ανδ. Σπυρόπουλος]
TTITLE1=Μιά μέλι, μιά κεντρί [ίδιος κ Ανδ. Σπυρόπουλος]
TTITLE2=Αίσθημά μου δυνατό [Δ. Σταμπουλής-Κ. Νίτσος]
TTITLE3=Το χελιδόνι [Β. Σαλέας-Ανδ. Σπυρόπουλος]
TTITLE4=Αν με χρειαστεί ς[Χρ. Περτσινίδης-Ηλ. Φιλίππου]
TTITLE5=Γράμματά σου σκίζω [Β. Κελαϊδής-Ηλ. Φιλίππου]
TTITLE6=Τα στέφανα [Β. Σαλέας-Ανδ. Σπυρόπουλος]
TTITLE7=Τι παράπονα [Θ. Καμπουρίδης-Γ. Παπαϊωάννου]
TTITLE8=Σημαδάκι κόκκινο [Ανδ. Μέξας-Σμ. Μαραγκουδάκη]
TTITLE9=Απόψε να δεις τι θα γίνει [Θ. Καμπουρίδης-Μ. Κοντοπίδης]
TTITLE10=Όνειρα και όνειρα [Ηλ. Μπάσιος-Άγγ. Αξιώτης]
TTITLE11=Καίγομαι [Παν. Μαθιέλλης-Σαρ. Αλιβιζάτος]
TTITLE12=Φτάνει να μ' αγαπάς [Β. Σαλέας-Ανδ. Σπυρόπουλος]
TTITLE13=Το πουκάμισό μου [Θ. Καμπουρίδης]
TTITLE14=Παραλίγο να πάρω τους δρόμους [Δ. Σταμπουλής-Λ. Τσώλης]
TTITLE15=Έπαιξες κι έχασες [Χρ. Περτσινίδης-Ηλ. Φιλίππου]
EXTD=
EXTT0=
EXTT1=
EXTT2=
EXTT3=
EXTT4=
EXTT5=
EXTT6=
EXTT7=
EXTT8=
EXTT9=
EXTT10=
EXTT11=
EXTT12=
EXTT13=
EXTT14=
EXTT15=
PLAYORDER=
